<svg xmlns="http://www.w3.org/2000/svg"  viewBox="0 0 100 100" width="50px" height="50px"><path fill="#c7ede6" d="M88.704,55.677c0.3-0.616,0.566-1.264,0.796-1.943c2.633-7.77-1.349-17.078-9.733-19.325C78.86,23.026,70.86,15.216,61.826,13.884c-10.341-1.525-19.814,5.044-22.966,15.485c-3.799-1.346-7.501-1.182-10.99,0.857c-1.583,0.732-3.031,1.812-4.33,3.233c-1.907,2.086-3.147,4.719-3.652,7.495c-0.748,0.118-1.483,0.236-2.176,0.484c-4.04,1.449-6.589,4.431-7.288,8.923c-0.435,2.797,0.443,5.587,0.933,6.714c1.935,4.455,6.422,6.98,10.981,6.312c0.227-0.033,0.557,0.069,0.752,0.233c0.241,7.12,3.698,13.417,8.884,17.014c8.321,5.772,19.027,3.994,25.781-3.921c2.894,2.96,6.338,4.398,10.384,3.876c4.023-0.519,7.147-2.739,9.426-6.349c1.053,0.283,2.051,0.691,3.083,0.804c4.042,0.442,7.324-1.165,9.732-4.8c0.922-1.391,1.793-3.194,1.793-6.354C92.174,60.634,90.88,57.667,88.704,55.677z"/><path fill="#fff" d="M18.369 47.713H8.338c-.276 0-.5-.224-.5-.5s.224-.5.5-.5h10.03c.276 0 .5.224.5.5S18.645 47.713 18.369 47.713zM21.25 47.713h-1.445c-.276 0-.5-.224-.5-.5s.224-.5.5-.5h1.445c.276 0 .5.224.5.5S21.526 47.713 21.25 47.713zM25.304 47.713h-2.546c-.276 0-.5-.224-.5-.5s.224-.5.5-.5h2.546c.276 0 .5.224.5.5S25.581 47.713 25.304 47.713zM25.304 49.578h-9.616c-.276 0-.5-.224-.5-.5s.224-.5.5-.5h9.616c.276 0 .5.224.5.5S25.581 49.578 25.304 49.578zM13.957 49.578h-.58c-.276 0-.5-.224-.5-.5s.224-.5.5-.5h.58c.276 0 .5.224.5.5S14.233 49.578 13.957 49.578zM11.58 49.578h-1.456c-.276 0-.5-.224-.5-.5s.224-.5.5-.5h1.456c.276 0 .5.224.5.5S11.856 49.578 11.58 49.578zM20.715 45.848h-5.027c-.276 0-.5-.224-.5-.5s.224-.5.5-.5h5.027c.276 0 .5.224.5.5S20.992 45.848 20.715 45.848zM20.715 43.983h-1.258c-.276 0-.5-.224-.5-.5s.224-.5.5-.5h1.258c.276 0 .5.224.5.5S20.992 43.983 20.715 43.983zM17.447 51.443h-1.759c-.276 0-.5-.224-.5-.5s.224-.5.5-.5h1.759c.276 0 .5.224.5.5S17.723 51.443 17.447 51.443zM74.394 25.392h-10.03c-.276 0-.5-.224-.5-.5s.224-.5.5-.5h10.03c.276 0 .5.224.5.5S74.67 25.392 74.394 25.392zM77.276 25.392H75.83c-.276 0-.5-.224-.5-.5s.224-.5.5-.5h1.446c.276 0 .5.224.5.5S77.552 25.392 77.276 25.392zM81.33 25.392h-2.546c-.276 0-.5-.224-.5-.5s.224-.5.5-.5h2.546c.276 0 .5.224.5.5S81.606 25.392 81.33 25.392zM81.33 27.257h-9.616c-.276 0-.5-.224-.5-.5s.224-.5.5-.5h9.616c.276 0 .5.224.5.5S81.606 27.257 81.33 27.257zM69.982 27.257h-.58c-.276 0-.5-.224-.5-.5s.224-.5.5-.5h.58c.276 0 .5.224.5.5S70.258 27.257 69.982 27.257zM67.605 27.257h-1.456c-.276 0-.5-.224-.5-.5s.224-.5.5-.5h1.456c.276 0 .5.224.5.5S67.881 27.257 67.605 27.257zM76.741 23.527h-5.027c-.276 0-.5-.224-.5-.5s.224-.5.5-.5h5.027c.276 0 .5.224.5.5S77.017 23.527 76.741 23.527zM76.741 21.662h-1.257c-.276 0-.5-.224-.5-.5s.224-.5.5-.5h1.257c.276 0 .5.224.5.5S77.017 21.662 76.741 21.662zM73.472 29.122h-1.759c-.276 0-.5-.224-.5-.5s.224-.5.5-.5h1.759c.276 0 .5.224.5.5S73.749 29.122 73.472 29.122z"/><path fill="#fdfcef" d="M74.965,48.546c0,0,10.616,0,10.681,0c2.452,0,4.439-1.987,4.439-4.439c0-2.139-1.513-3.924-3.527-4.344c0.023-0.187,0.039-0.377,0.039-0.57c0-2.539-2.058-4.598-4.597-4.598c-1.499,0-2.827,0.721-3.666,1.831c-0.215-2.826-2.739-5.007-5.693-4.646c-2.16,0.264-3.947,1.934-4.344,4.073c-0.127,0.686-0.114,1.352,0.013,1.977c-0.579-0.624-1.403-1.016-2.322-1.016c-1.68,0-3.052,1.308-3.16,2.961c-0.763-0.169-1.593-0.158-2.467,0.17c-1.671,0.627-2.861,2.2-2.93,3.983c-0.099,2.533,1.925,4.617,4.435,4.617c0.191,0,0.861,0,1.015,0h9.218"/><path fill="#472b29" d="M85.646,49.046H74.965c-0.276,0-0.5-0.224-0.5-0.5s0.224-0.5,0.5-0.5h10.681c2.172,0,3.938-1.767,3.938-3.939c0-1.854-1.315-3.476-3.129-3.855c-0.254-0.053-0.425-0.291-0.394-0.549c0.02-0.168,0.035-0.337,0.035-0.511c0-2.259-1.838-4.098-4.098-4.098c-1.292,0-2.483,0.595-3.267,1.632c-0.126,0.166-0.343,0.237-0.54,0.179c-0.2-0.059-0.342-0.235-0.358-0.442c-0.094-1.238-0.7-2.401-1.663-3.191c-0.973-0.797-2.206-1.148-3.471-0.997c-1.946,0.238-3.556,1.747-3.913,3.668c-0.111,0.599-0.107,1.2,0.012,1.786c0.044,0.22-0.062,0.442-0.262,0.544c-0.197,0.103-0.441,0.061-0.595-0.104c-0.513-0.552-1.207-0.856-1.955-0.856c-1.4,0-2.569,1.095-2.661,2.494c-0.01,0.146-0.082,0.28-0.199,0.367c-0.116,0.087-0.269,0.118-0.407,0.088c-0.754-0.167-1.471-0.118-2.184,0.15c-1.499,0.562-2.547,1.983-2.606,3.535c-0.043,1.083,0.347,2.11,1.097,2.889c0.749,0.779,1.758,1.208,2.839,1.208h10.233c0.276,0,0.5,0.224,0.5,0.5s-0.224,0.5-0.5,0.5H61.866c-1.355,0-2.62-0.538-3.56-1.516c-0.94-0.977-1.429-2.263-1.376-3.621c0.076-1.949,1.384-3.73,3.255-4.432c0.72-0.27,1.462-0.363,2.221-0.279c0.362-1.655,1.842-2.884,3.582-2.884c0.603,0,1.193,0.151,1.72,0.432c0.004-0.328,0.036-0.656,0.098-0.984c0.436-2.346,2.398-4.188,4.774-4.478c1.532-0.192,3.039,0.244,4.226,1.216c0.899,0.737,1.544,1.742,1.847,2.851c0.919-0.807,2.095-1.256,3.348-1.256c2.811,0,5.098,2.287,5.098,5.098c0,0.064-0.002,0.128-0.005,0.192c2.048,0.628,3.492,2.547,3.492,4.723C90.585,46.83,88.369,49.046,85.646,49.046z"/><path fill="#fdfcef" d="M72.392,38.767c-1.642-0.108-3.055,1.026-3.157,2.533c-0.013,0.187-0.004,0.371,0.023,0.55c-0.317-0.358-0.786-0.6-1.324-0.636c-0.985-0.065-1.836,0.586-1.959,1.471c-0.179-0.049-0.366-0.082-0.56-0.095c-1.437-0.094-2.674,0.898-2.762,2.216"/><path fill="#472b29" d="M62.654,45.057c-0.006,0-0.011,0-0.017,0c-0.138-0.009-0.242-0.128-0.232-0.266c0.099-1.453,1.455-2.552,3.027-2.449c0.118,0.008,0.235,0.022,0.354,0.044c0.26-0.878,1.168-1.49,2.166-1.42c0.376,0.025,0.729,0.139,1.034,0.33c0-0.004,0-0.008,0.001-0.012c0.11-1.641,1.624-2.88,3.422-2.765c0.138,0.009,0.242,0.128,0.232,0.266c-0.008,0.137-0.104,0.245-0.266,0.233c-1.514-0.102-2.798,0.933-2.891,2.3c-0.011,0.164-0.004,0.331,0.021,0.497c0.017,0.109-0.041,0.217-0.142,0.263c-0.102,0.045-0.219,0.022-0.293-0.061c-0.284-0.321-0.704-0.522-1.152-0.552c-0.849-0.046-1.589,0.497-1.694,1.256c-0.011,0.071-0.05,0.134-0.11,0.174c-0.06,0.04-0.132,0.053-0.203,0.033c-0.176-0.047-0.343-0.076-0.512-0.086c-1.305-0.093-2.416,0.805-2.496,1.983C62.894,44.956,62.785,45.057,62.654,45.057z"/><path fill="#fdfcef" d="M87.443,40.283c-1.543-0.727-3.327-0.213-3.985,1.15c-0.082,0.169-0.142,0.344-0.182,0.521"/><path fill="#472b29" d="M83.275,42.204c-0.019,0-0.037-0.002-0.057-0.006c-0.134-0.031-0.218-0.166-0.187-0.3c0.046-0.201,0.114-0.394,0.201-0.574c0.715-1.484,2.653-2.054,4.316-1.268c0.125,0.059,0.179,0.208,0.12,0.333c-0.06,0.126-0.21,0.177-0.333,0.12c-1.421-0.67-3.057-0.204-3.653,1.033c-0.071,0.146-0.127,0.304-0.165,0.468C83.492,42.126,83.389,42.204,83.275,42.204z"/><path fill="#f4989e" d="M65.26,69.974H39.538c-3.766,0-6.847-3.081-6.847-6.847V37.405c0-3.766,3.081-6.847,6.847-6.847H65.26c3.766,0,6.847,3.081,6.847,6.847v25.722C72.108,66.893,69.026,69.974,65.26,69.974z"/><path fill="#472b29" d="M65.26,70.675H39.539c-4.162,0-7.548-3.386-7.548-7.547V37.405c0-4.162,3.386-7.547,7.548-7.547H65.26c4.162,0,7.548,3.386,7.548,7.547v25.722C72.808,67.289,69.422,70.675,65.26,70.675z M39.539,31.258c-3.39,0-6.147,2.757-6.147,6.147v25.722c0,3.39,2.758,6.147,6.147,6.147H65.26c3.39,0,6.147-2.757,6.147-6.147V37.405c0-3.39-2.758-6.147-6.147-6.147H39.539z"/><path fill="#fdfcee" d="M63.743,67.159H41.055c-3.052,0-5.549-2.497-5.549-5.549V38.922c0-3.052,2.497-5.549,5.549-5.549h22.688c3.052,0,5.549,2.497,5.549,5.549V61.61C69.292,64.662,66.795,67.159,63.743,67.159z"/><path fill="#472b29" d="M64.158,67.509H40.64c-3.023,0-5.483-2.46-5.483-5.484V38.508c0-3.024,2.46-5.484,5.483-5.484h22.396c0.193,0,0.35,0.157,0.35,0.35s-0.156,0.35-0.35,0.35H40.64c-2.638,0-4.784,2.146-4.784,4.784v23.517c0,2.638,2.146,4.784,4.784,4.784h23.518c2.639,0,4.785-2.146,4.785-4.784v-13.01c0-0.193,0.156-0.35,0.35-0.35s0.35,0.157,0.35,0.35v13.01C69.642,65.049,67.182,67.509,64.158,67.509z"/><path fill="#472b29" d="M69.293 47.488c-.193 0-.35-.157-.35-.35v-2.503c0-.193.156-.35.35-.35s.35.157.35.35v2.503C69.642 47.331 69.486 47.488 69.293 47.488zM69.293 43.734c-.193 0-.35-.157-.35-.35v-1.251c0-.193.156-.35.35-.35s.35.157.35.35v1.251C69.642 43.577 69.486 43.734 69.293 43.734z"/><path fill="#ee3e54" d="M62.424,45.905c0,0-0.2-1.504-0.813-2.167c-0.778-0.868-1.65-0.873-2.05-0.923c-2.863-0.222-7.157-0.222-7.157-0.222h-0.01c0,0-4.294,0-7.157,0.222c-0.4,0.049-1.271,0.054-2.05,0.923c-0.613,0.662-0.813,2.167-0.813,2.167s-0.205,1.765-0.205,3.53v1.655c0,1.766,0.205,3.531,0.205,3.531s0.2,1.504,0.813,2.165c0.779,0.868,1.8,0.842,2.256,0.933c1.637,0.167,6.956,0.219,6.956,0.219s4.299-0.008,7.162-0.227c0.4-0.051,1.271-0.056,2.05-0.924c0.613-0.661,0.813-2.165,0.813-2.165s0.205-1.765,0.205-3.531v-1.655C62.628,47.67,62.424,45.905,62.424,45.905z"/><path fill="#472b29" d="M52.4,58.328c-0.223-0.002-5.361-0.054-6.997-0.221c-0.106-0.02-0.191-0.03-0.287-0.042c-0.552-0.071-1.476-0.189-2.218-1.018c-0.674-0.726-0.888-2.208-0.91-2.374c-0.009-0.08-0.207-1.813-0.207-3.582v-1.654c0-1.767,0.198-3.502,0.206-3.575c0.023-0.173,0.237-1.655,0.915-2.387c0.801-0.893,1.69-0.983,2.169-1.032l0.118-0.013c2.863-0.222,7.162-0.225,7.205-0.225c0.053,0,4.352,0.002,7.197,0.223l0.136,0.014c0.479,0.049,1.369,0.139,2.174,1.037c0.674,0.728,0.887,2.209,0.909,2.376c0,0.002,0,0.004,0.001,0.006c0.008,0.073,0.207,1.808,0.207,3.576v1.654c0,1.769-0.199,3.503-0.207,3.576c-0.023,0.173-0.237,1.654-0.914,2.385c-0.799,0.891-1.688,0.983-2.165,1.033l-0.122,0.013C56.746,58.318,52.443,58.328,52.4,58.328z M52.404,42.985c-0.053,0-4.321,0.002-7.137,0.22l-0.118,0.013c-0.425,0.043-1.067,0.108-1.671,0.781c-0.438,0.474-0.666,1.574-0.717,1.958c-0.001,0.011-0.201,1.758-0.201,3.479v1.654c0,1.722,0.2,3.469,0.202,3.486c0.051,0.378,0.279,1.479,0.712,1.945c0.554,0.617,1.239,0.706,1.741,0.77c0.116,0.015,0.219,0.029,0.304,0.046c1.563,0.158,6.831,0.211,6.884,0.211c0.038,0,4.312-0.01,7.129-0.226l0.119-0.014c0.425-0.044,1.067-0.111,1.67-0.782c0.438-0.473,0.665-1.572,0.716-1.956c0.001-0.011,0.202-1.758,0.202-3.48v-1.654c0-1.688-0.193-3.4-0.202-3.483c-0.053-0.388-0.281-1.484-0.712-1.95c-0.607-0.677-1.25-0.743-1.676-0.786l-0.136-0.015C56.715,42.987,52.447,42.985,52.404,42.985z"/><path fill="#fdfcee" d="M49.842 46.332L49.842 54.004 56.235 50.168z"/><path fill="#472b29" d="M49.842,54.354c-0.06,0-0.119-0.015-0.173-0.045c-0.109-0.062-0.177-0.179-0.177-0.305v-7.672c0-0.126,0.067-0.243,0.177-0.305c0.109-0.062,0.245-0.061,0.353,0.004l6.393,3.836c0.105,0.063,0.17,0.177,0.17,0.3s-0.064,0.237-0.17,0.3l-6.393,3.836C49.967,54.337,49.905,54.354,49.842,54.354z M50.192,46.95v6.436l5.362-3.218L50.192,46.95z"/><path fill="#fdfcef" d="M42.126,72.487c1.71,0,3.194,0,3.215,0c1.916,0,3.469-1.52,3.469-3.396c0-1.636-1.182-3.001-2.756-3.323c0.018-0.143,0.031-0.288,0.031-0.436c0-1.942-1.609-3.517-3.593-3.517c-1.172,0-2.209,0.551-2.865,1.401c-0.168-2.162-2.141-3.83-4.45-3.554c-1.688,0.202-3.084,1.479-3.395,3.116c-0.1,0.525-0.089,1.034,0.01,1.512c-0.453-0.477-1.097-0.777-1.814-0.777c-1.313,0-2.385,1.001-2.47,2.265c-0.596-0.129-1.245-0.121-1.928,0.13c-1.306,0.48-2.236,1.683-2.29,3.047c-0.077,1.937,1.504,3.532,3.467,3.532c0.149,0,0.673,0,0.794,0h7.204 M36.245,72.487h0.327"/><path fill="#472b29" d="M45.341,72.987h-3.215c-0.276,0-0.5-0.224-0.5-0.5s0.224-0.5,0.5-0.5h3.215c1.637,0,2.969-1.299,2.969-2.896c0-1.363-0.991-2.554-2.356-2.833c-0.255-0.052-0.428-0.292-0.396-0.551c0.015-0.123,0.026-0.248,0.026-0.375c0-1.664-1.388-3.017-3.093-3.017c-0.978,0-1.878,0.439-2.47,1.207c-0.126,0.164-0.342,0.233-0.538,0.173c-0.198-0.059-0.34-0.234-0.355-0.44c-0.071-0.913-0.507-1.741-1.228-2.332c-0.742-0.609-1.689-0.879-2.665-0.764c-1.475,0.177-2.693,1.292-2.963,2.712c-0.084,0.444-0.082,0.887,0.008,1.317c0.046,0.219-0.06,0.441-0.258,0.545c-0.197,0.104-0.439,0.063-0.595-0.099c-0.38-0.401-0.896-0.622-1.451-0.622c-1.037,0-1.903,0.79-1.971,1.799c-0.01,0.145-0.082,0.278-0.198,0.366c-0.116,0.088-0.264,0.119-0.406,0.089c-0.572-0.124-1.11-0.087-1.649,0.111c-1.129,0.415-1.919,1.458-1.964,2.598c-0.031,0.782,0.253,1.526,0.8,2.096c0.567,0.591,1.337,0.916,2.167,0.916h7.998c0.276,0,0.5,0.224,0.5,0.5s-0.224,0.5-0.5,0.5h-7.998c-1.089,0-2.141-0.446-2.889-1.223c-0.737-0.768-1.12-1.772-1.078-2.829c0.062-1.539,1.114-2.943,2.618-3.496c0.55-0.202,1.117-0.277,1.688-0.228c0.332-1.268,1.507-2.198,2.882-2.198c0.431,0,0.854,0.094,1.241,0.269c0.011-0.198,0.034-0.397,0.072-0.597c0.35-1.844,1.924-3.291,3.826-3.519c1.254-0.147,2.463,0.2,3.418,0.984c0.668,0.548,1.147,1.255,1.399,2.047c0.718-0.568,1.61-0.882,2.558-0.882c2.257,0,4.093,1.802,4.093,4.017c0,0.02,0,0.04-0.001,0.059c1.604,0.52,2.727,2.012,2.727,3.7C49.31,71.239,47.53,72.987,45.341,72.987z M36.571,72.987h-0.326c-0.276,0-0.5-0.224-0.5-0.5s0.224-0.5,0.5-0.5h0.326c0.276,0,0.5,0.224,0.5,0.5S36.847,72.987,36.571,72.987z"/><path fill="#472b29" d="M43.791 67.695c-.018 0-.036-.002-.055-.006-.135-.03-.22-.164-.189-.299.034-.152.087-.3.155-.44.556-1.122 2.086-1.538 3.41-.925.126.058.181.207.122.332-.058.125-.208.18-.331.122-1.081-.499-2.316-.19-2.753.692-.051.104-.09.214-.115.328C44.008 67.615 43.905 67.695 43.791 67.695zM39.106 72.987H38.1c-.276 0-.5-.224-.5-.5s.224-.5.5-.5h1.006c.276 0 .5.224.5.5S39.382 72.987 39.106 72.987z"/></svg>