<svg width="232" height="202" viewBox="0 0 232 202" fill="none" xmlns="http://www.w3.org/2000/svg">
<path d="M132.256 202C143.008 199.888 153.088 194.512 162.496 185.872C172.096 177.04 179.872 165.616 185.824 151.6C191.776 137.584 194.752 122.032 194.752 104.944C194.752 87.472 191.104 71.728 183.808 57.712C176.704 43.504 166.816 32.464 154.144 24.592C141.664 16.528 127.552 12.496 111.808 12.496C97.408 12.496 84.544 16.144 73.216 23.44C62.08 30.736 53.344 41.104 47.008 54.544C40.672 67.792 37.504 83.248 37.504 100.912C37.504 126.256 42.688 147.568 53.056 164.848C63.616 182.128 78.592 194.512 97.984 202H5.824C5.056 194.896 3.424 182.128 0.928 163.696C4.384 170.608 7.936 175.696 11.584 178.96C15.232 182.224 20.128 184.528 26.272 185.872C32.608 187.024 41.824 187.6 53.92 187.6C42.208 179.344 32.704 168.112 25.408 153.904C18.112 139.696 14.464 123.472 14.464 105.232C14.464 84.88 18.784 66.736 27.424 50.8C36.256 34.864 48.544 22.48 64.288 13.648C80.224 4.81599 98.56 0.399986 119.296 0.399986C136.576 0.399986 152.704 4.23999 167.68 11.92C182.848 19.408 194.944 30.736 203.968 45.904C213.184 61.072 217.792 79.312 217.792 100.624C217.792 119.248 214.048 136.144 206.56 151.312C199.072 166.288 188.608 178.384 175.168 187.6H187.552C197.344 187.6 204.736 186.928 209.728 185.584C214.912 184.048 218.848 181.744 221.536 178.672C224.416 175.6 227.584 170.608 231.04 163.696C228.544 182.128 226.912 194.896 226.144 202H132.256Z" fill="url(#paint0_linear_452_55)"/>
<defs>
<linearGradient id="paint0_linear_452_55" x1="114.5" y1="-48" x2="114.5" y2="282" gradientUnits="userSpaceOnUse">
<stop stop-color="#EB5160"/>
<stop offset="1" stop-color="#FCA311"/>
</linearGradient>
</defs>
</svg>
