<svg width="1732" height="762" viewBox="0 0 1732 762" fill="none" xmlns="http://www.w3.org/2000/svg">
<path d="M139.806 20.2746H0V117.068H139.806C154.609 117.042 168 111.64 177.716 102.889C187.445 94.1385 193.456 82.0377 193.456 68.6776C193.456 41.9702 169.442 20.3135 139.806 20.2746Z" fill="#FFF1DB"/>
<path d="M356.805 686.346V634H304.459V686.346V738.692H356.805H409.151V686.346H356.805Z" fill="#EB5160"/>
<path d="M388.83 761.151H282V654.321H336.484V706.667H388.83V761.151ZM284.138 759.013H386.692V708.805H334.346V656.459H284.138V759.013Z" fill="#FCA311"/>
<path d="M367.761 634.566H364.576V679.997H367.761V634.566Z" fill="#EB5160"/>
<path d="M375.875 634.556H372.689V679.986H375.875V634.556Z" fill="#EB5160"/>
<path d="M383.977 634.567H380.792V679.997H383.977V634.567Z" fill="#EB5160"/>
<path d="M392.08 634.567H388.894V679.997H392.08V634.567Z" fill="#EB5160"/>
<path d="M400.183 634.556H396.997V679.986H400.183V634.556Z" fill="#EB5160"/>
<path d="M408.189 634.567H405.1V679.997H408.189V634.567Z" fill="#EB5160"/>
<path d="M1281.19 31.2956C1287.27 28.7599 1290.14 21.7769 1287.6 15.6985C1285.07 9.62006 1278.08 6.74812 1272.01 9.28381C1265.93 11.8195 1263.06 18.8026 1265.59 24.881C1268.13 30.9594 1275.11 33.8313 1281.19 31.2956Z" fill="#FF9D00"/>
<path d="M1406.61 0C1395.42 0 1386.33 9.08143 1386.33 20.2779C1386.33 31.4743 1395.42 40.5558 1406.61 40.5558C1417.81 40.5558 1426.89 31.4743 1426.89 20.2779C1426.89 9.08143 1417.81 0 1406.61 0ZM1406.61 29.9568C1401.27 29.9568 1396.94 25.6312 1396.94 20.2898C1396.94 14.9485 1401.27 10.6229 1406.61 10.6229C1411.95 10.6229 1416.28 14.9485 1416.28 20.2898C1416.28 25.6312 1411.95 29.9568 1406.61 29.9568Z" fill="#FF9D00"/>
<path d="M1453.29 8.50787C1446.79 8.50787 1441.52 13.7775 1441.52 20.2779C1441.52 26.7783 1446.79 32.0479 1453.29 32.0479C1459.79 32.0479 1465.06 26.7783 1465.06 20.2779C1465.06 13.7775 1459.79 8.50787 1453.29 8.50787ZM1453.29 23.4564C1451.53 23.4564 1450.11 22.0344 1450.11 20.2779C1450.11 18.5213 1451.53 17.0994 1453.29 17.0994C1455.04 17.0994 1456.46 18.5213 1456.46 20.2779C1456.46 22.0344 1455.04 23.4564 1453.29 23.4564Z" fill="#114A82"/>
<path d="M1361.55 9.84619C1355.78 9.84619 1351.11 14.5184 1351.11 20.2898C1351.11 26.0613 1355.78 30.7335 1361.55 30.7335C1367.32 30.7335 1371.99 26.0613 1371.99 20.2898C1371.99 14.5184 1367.32 9.84619 1361.55 9.84619ZM1361.55 25.2607C1358.8 25.2607 1356.57 23.0262 1356.57 20.2779C1356.57 17.5296 1358.8 15.2951 1361.55 15.2951C1364.3 15.2951 1366.53 17.5296 1366.53 20.2779C1366.53 23.0262 1364.3 25.2607 1361.55 25.2607Z" fill="#FFC200"/>
<path d="M1639.76 633.849L1731.1 725.19H1639.76V633.849Z" fill="#DA5077"/>
<path d="M1144.63 621.326L1035 511.701C1065.27 481.433 1114.36 481.433 1144.63 511.701C1174.89 541.968 1174.89 591.059 1144.63 621.326Z" fill="#DA5077" fill-opacity="0.57"/>
<path d="M1080.67 630.488L1073.71 623.531L1080.67 616.573C1081.54 615.698 1081.54 614.26 1080.67 613.384C1079.79 612.509 1078.35 612.509 1077.48 613.384L1070.52 620.341L1063.56 613.384C1062.69 612.509 1061.25 612.509 1060.37 613.384C1059.5 614.26 1059.5 615.698 1060.37 616.573L1067.33 623.531L1060.37 630.488C1059.5 631.363 1059.5 632.802 1060.37 633.677C1061.25 634.553 1062.69 634.553 1063.56 633.677L1070.52 626.72L1077.48 633.677C1078.35 634.553 1079.79 634.553 1080.67 633.677C1081.54 632.802 1081.54 631.379 1080.67 630.488Z" fill="#FFC263"/>
<path d="M1167.33 575.722L1200.97 542.077H1133.68L1167.33 575.722Z" fill="#244579" fill-opacity="0.87"/>
</svg>
