<svg width="200" height="56" viewBox="0 0 200 56" fill="none" xmlns="http://www.w3.org/2000/svg">
<g clip-path="url(#clip0_36_355)">
<path d="M4.83141 33.6744H5.38651C6.70978 33.6744 7.69663 33.4391 8.34703 32.9683C8.99746 32.4862 9.32268 31.7689 9.32268 30.8162C9.32268 29.8971 9.01428 29.2189 8.39751 28.7818C7.78072 28.3447 6.82191 28.1262 5.52108 28.1262H4.83141V33.6744ZM4.83141 43.9976H6.27804C7.73586 43.9976 8.80682 43.7565 9.49088 43.2747C10.1749 42.7814 10.517 42.0248 10.517 41.0048C10.517 39.8953 10.1581 39.0545 9.4404 38.483C8.7227 37.9113 7.66859 37.6256 6.27804 37.6256H4.83141V43.9976ZM0.222412 48.3017V23.822H5.48744C6.55277 23.822 7.39945 23.8669 8.02744 23.9567C8.65543 24.0351 9.21052 24.1752 9.69273 24.3768C11.0384 24.926 12.0701 25.7163 12.7878 26.7474C13.5055 27.7787 13.8644 28.9836 13.8644 30.3624C13.8644 31.5056 13.6513 32.4807 13.2252 33.2877C12.799 34.0948 12.1711 34.7057 11.3412 35.1203C12.5523 35.479 13.5055 36.1684 14.2008 37.1882C14.8961 38.2083 15.2437 39.4244 15.2437 40.8367C15.2437 41.9799 15.0306 43.0559 14.6045 44.0647C14.1784 45.0623 13.5896 45.8918 12.8383 46.5532C12.0869 47.1807 11.2459 47.6293 10.3151 47.898C9.38435 48.1673 8.0667 48.3017 6.36215 48.3017H0.222412ZM21.9554 27.9243H17.7501V23.822H21.9554V27.9243ZM17.7501 48.3017V29.8074H21.9554V48.3017H17.7501ZM40.4586 29.8074H44.3108V45.2417C44.3108 48.4473 43.4529 50.9637 41.7371 52.7906C40.0325 54.6177 37.6888 55.5311 34.7057 55.5311C32.4742 55.5311 30.6072 55.0044 29.1043 53.9508C27.6017 52.9085 26.4971 51.3559 25.7907 49.2935H29.9455C30.394 50.123 31.0333 50.7732 31.8632 51.244C32.6928 51.7146 33.6179 51.9501 34.6385 51.9501C36.3543 51.9501 37.7447 51.3896 38.8103 50.2689C39.8868 49.1591 40.4251 47.6907 40.4251 45.8639V45.6788C39.5952 46.542 38.6476 47.1977 37.5823 47.646C36.517 48.0831 35.3507 48.3017 34.0835 48.3017C32.8498 48.3017 31.678 48.0886 30.5677 47.6627C29.4689 47.2369 28.4933 46.6259 27.6409 45.8301C26.7213 44.9559 25.9981 43.9134 25.4711 42.703C24.944 41.4923 24.6804 40.2594 24.6804 39.0041C24.6804 36.2019 25.5663 33.8929 27.338 32.0771C29.11 30.2502 31.3584 29.3368 34.0835 29.3368C35.3282 29.3368 36.472 29.5554 37.5148 29.9925C38.5691 30.4296 39.5502 31.102 40.4586 32.0099V29.8074ZM28.9529 38.7351C28.9529 40.3491 29.4911 41.6999 30.5677 42.7871C31.6555 43.8742 32.9899 44.4179 34.5713 44.4179C36.0179 44.4179 37.2907 43.8687 38.3897 42.7702C39.4998 41.6717 40.055 40.3941 40.055 38.9369C40.055 37.3566 39.511 36.0115 38.4232 34.9018C37.3354 33.7808 36.0402 33.2205 34.5376 33.2205C32.99 33.2205 31.6725 33.7528 30.5847 34.8176C29.4969 35.8824 28.9529 37.1882 28.9529 38.7351ZM79.6479 48.3017C82.2201 47.7966 84.6316 46.5112 86.8823 44.4452C89.1789 42.3333 91.0392 39.6016 92.4632 36.2502C93.8871 32.8987 94.599 29.1799 94.599 25.0939C94.599 20.9161 93.7263 17.1514 91.9809 13.7999C90.2813 10.4026 87.9158 7.7627 84.8842 5.88037C81.8986 3.95213 78.5225 2.98801 74.756 2.98801C71.311 2.98801 68.2335 3.86031 65.5234 5.6049C62.8593 7.3495 60.7694 9.82867 59.2536 13.0424C57.7378 16.2102 56.9799 19.906 56.9799 24.1298C56.9799 30.19 58.2201 35.286 60.7005 39.418C63.2268 43.5499 66.8096 46.5112 71.4488 48.3017H49.401C49.2172 46.603 48.8268 43.5499 48.2297 39.1425C49.0565 40.7953 49.9062 42.0119 50.7789 42.7924C51.6517 43.5729 52.823 44.1238 54.2928 44.4452C55.8086 44.7206 58.0134 44.8584 60.9072 44.8584C58.1053 42.8842 55.8316 40.1985 54.0861 36.8011C52.3407 33.4037 51.4679 29.5243 51.4679 25.1628C51.4679 20.2963 52.5014 15.9577 54.5684 12.1471C56.6813 8.33658 59.621 5.37535 63.3876 3.26347C67.2 1.15158 71.5866 0.0956421 76.5474 0.0956421C80.6813 0.0956421 84.5397 1.01385 88.1225 2.85027C91.7512 4.64078 94.645 7.3495 96.8038 10.9764C99.0086 14.6034 100.111 18.9649 100.111 24.0609C100.111 28.5142 99.2153 32.5544 97.4239 36.1813C95.6325 39.7623 93.1292 42.6547 89.9139 44.8584H92.8766C95.2191 44.8584 96.9876 44.6977 98.1818 44.3763C99.422 44.009 100.364 43.4581 101.007 42.7235C101.696 41.989 102.454 40.7953 103.28 39.1425C102.683 43.5499 102.293 46.603 102.109 48.3017H79.6479ZM110.637 29.8074V31.909C111.265 31.0685 111.982 30.4463 112.79 30.0429C113.608 29.6393 114.539 29.4375 115.582 29.4375C117.073 29.4375 118.346 29.701 119.4 30.2278C120.466 30.7545 121.38 31.5783 122.142 32.6993C122.871 31.6008 123.69 30.7825 124.598 30.2445C125.506 29.7065 126.51 29.4375 127.609 29.4375C129.874 29.4375 131.613 30.1493 132.824 31.5728C134.035 32.9963 134.64 35.0362 134.64 37.6927V48.3017H130.401V40.1138C130.401 37.6031 130.121 35.8994 129.56 35.0027C129.011 34.0948 128.052 33.6409 126.684 33.6409C125.26 33.6409 124.239 34.1507 123.622 35.1708C123.017 36.1796 122.714 37.9168 122.714 40.3828V48.3017H118.442V40.1138C118.442 37.6143 118.156 35.9106 117.584 35.0027C117.023 34.0948 116.036 33.6409 114.623 33.6409C113.188 33.6409 112.156 34.1507 111.528 35.1708C110.9 36.1796 110.586 37.9168 110.586 40.3828V48.3017H106.431V29.8074H110.637ZM151.966 37.0034C151.596 35.7705 150.974 34.8346 150.099 34.1957C149.236 33.5455 148.142 33.2205 146.819 33.2205C145.675 33.2205 144.649 33.568 143.741 34.2629C142.832 34.9577 142.221 35.8714 141.907 37.0034H151.966ZM141.756 40.4163C141.901 41.7503 142.429 42.8039 143.337 43.5772C144.256 44.3395 145.44 44.7204 146.886 44.7204C147.851 44.7204 148.714 44.5188 149.477 44.1152C150.25 43.7118 150.862 43.1458 151.31 42.4172H155.953C155.168 44.4347 153.99 46.004 152.42 47.1247C150.862 48.2345 149.056 48.7892 147.004 48.7892C145.625 48.7892 144.352 48.5482 143.186 48.0664C142.031 47.5731 140.993 46.8502 140.074 45.8973C139.199 44.9894 138.521 43.9416 138.038 42.7534C137.556 41.554 137.315 40.3266 137.315 39.0713C137.315 37.7824 137.534 36.5718 137.971 35.4398C138.42 34.2966 139.076 33.271 139.939 32.3631C140.881 31.3655 141.946 30.5977 143.135 30.0597C144.324 29.5216 145.552 29.2526 146.819 29.2526C148.422 29.2526 149.92 29.6168 151.31 30.3454C152.701 31.074 153.884 32.0996 154.859 33.4221C155.454 34.2181 155.891 35.1091 156.172 36.0954C156.463 37.0818 156.609 38.2138 156.609 39.4916C156.609 39.5925 156.603 39.7494 156.592 39.9625C156.581 40.1643 156.575 40.3156 156.575 40.4163H141.756ZM173.951 29.8074H177.804V45.2417C177.804 48.4473 176.946 50.9637 175.23 52.7906C173.525 54.6177 171.182 55.5311 168.199 55.5311C165.967 55.5311 164.1 55.0044 162.597 53.9508C161.094 52.9085 159.99 51.3559 159.283 49.2935H163.438C163.887 50.123 164.526 50.7732 165.356 51.244C166.186 51.7146 167.111 51.9501 168.131 51.9501C169.847 51.9501 171.238 51.3896 172.303 50.2689C173.38 49.1591 173.918 47.6907 173.918 45.8639V45.6788C173.088 46.542 172.14 47.1977 171.075 47.646C170.01 48.0831 168.844 48.3017 167.576 48.3017C166.343 48.3017 165.171 48.0886 164.061 47.6627C162.962 47.2369 161.986 46.6259 161.134 45.8301C160.214 44.9559 159.491 43.9134 158.964 42.703C158.437 41.4923 158.173 40.2594 158.173 39.0041C158.173 36.2019 159.059 33.8929 160.831 32.0771C162.603 30.2502 164.851 29.3368 167.576 29.3368C168.821 29.3368 169.965 29.5554 171.008 29.9925C172.062 30.4296 173.043 31.102 173.951 32.0099V29.8074ZM162.446 38.7351C162.446 40.3491 162.984 41.6999 164.061 42.7871C165.148 43.8742 166.483 44.4179 168.064 44.4179C169.511 44.4179 170.783 43.8687 171.883 42.7702C172.993 41.6717 173.548 40.3941 173.548 38.9369C173.548 37.3566 173.004 36.0115 171.916 34.9018C170.828 33.7808 169.533 33.2205 168.03 33.2205C166.483 33.2205 165.165 33.7528 164.078 34.8176C162.99 35.8824 162.446 37.1882 162.446 38.7351ZM184.784 38.9032C184.784 40.4613 185.3 41.7671 186.332 42.8206C187.375 43.8632 188.642 44.3842 190.133 44.3842C191.49 44.3842 192.685 43.8574 193.716 42.8039C194.748 41.7503 195.264 40.5172 195.264 39.105C195.264 37.6031 194.742 36.314 193.7 35.238C192.668 34.1507 191.457 33.6072 190.066 33.6072C188.608 33.6072 187.364 34.1227 186.332 35.154C185.3 36.1739 184.784 37.4237 184.784 38.9032ZM195.752 48.3017V46.032C195.236 46.9511 194.507 47.6293 193.565 48.0664C192.634 48.5035 191.44 48.722 189.982 48.722C187.246 48.722 184.958 47.7916 183.119 45.9311C181.291 44.0592 180.377 41.7391 180.377 38.9706C180.377 37.6703 180.607 36.4374 181.067 35.2717C181.527 34.106 182.183 33.0804 183.035 32.195C183.955 31.2196 184.975 30.5023 186.096 30.0429C187.218 29.5721 188.479 29.3368 189.881 29.3368C191.227 29.3368 192.382 29.5609 193.346 30.0092C194.322 30.4575 195.107 31.1357 195.701 32.0436V29.8074H199.906V48.3017H195.752Z" fill="url(#paint0_linear_36_355)"/>
</g>
<defs>
<linearGradient id="paint0_linear_36_355" x1="100" y1="-11.4776" x2="100" y2="67.431" gradientUnits="userSpaceOnUse">
<stop stop-color="#EB5160"/>
<stop offset="1" stop-color="#FCA311"/>
</linearGradient>
<clipPath id="clip0_36_355">
<rect width="200" height="55.7143" fill="white"/>
</clipPath>
</defs>
</svg>
